<?xml version="1.0" encoding="UTF-8"?>
<svg version="1.1" viewBox="0 0 1600 1600" width="300" height="300" xmlns="http://www.w3.org/2000/svg">
<path transform="translate(963,651)" d="m0 0h48c10.1 10.8 10.1 10.8 12.9 19.1 1.68 4.49 4.29 8.19 7.03 12.1 0.827 1.26 1.65 2.52 2.46 3.79 0.41 0.633 0.821 1.27 1.24 1.92 2.19 3.39 4.35 6.8 6.51 10.2 3.08 4.85 6.18 9.68 9.28 14.5 1.41 2.2 2.82 4.4 4.23 6.6 0.357 0.558 0.715 1.12 1.08 1.69 2.49 3.89 4.98 7.78 7.46 11.7 6.37 9.96 12.7 19.9 19.2 29.8 1.94 2.99 3.88 5.99 5.76 9.03 0.944 1.51 0.944 1.51 1.91 3.05 0.527 0.856 1.05 1.71 1.6 2.59 1.21 2.04 1.21 2.04 3.34 2.91v-129h47v209h-48c-9.71-15.1-9.71-15.1-14-21.9-5.52-8.71-11.1-17.4-16.7-26-5.1-7.79-10.1-15.6-15-23.5-2.48-3.99-5.02-7.95-7.57-11.9-3.54-5.49-7.04-11-10.5-16.5-4.46-7.01-8.93-14-13.4-21-0.462-0.717-0.924-1.43-1.4-2.17-1.94-3.17-1.94-3.17-4.29-6.01-0.33 42.6-0.66 85.1-1 129h-47v-209z" fill="#070508"/>
<path transform="translate(796,651)" d="m0 0h45c1.67 4.19 3.34 8.37 5.06 12.7 4.8 12 9.64 24 14.5 36 0.319 0.786 0.638 1.57 0.966 2.38 3.6 8.87 7.21 17.7 10.8 26.6 4.09 10 8.14 20 12.1 30.1 5.28 13.2 10.6 26.4 15.9 39.6 0.408 1.01 0.815 2.02 1.24 3.06 4.11 10.2 8.23 20.3 12.4 30.5 0.306 0.751 0.612 1.5 0.927 2.27 1.4 3.43 2.8 6.86 4.2 10.3 0.482 1.18 0.964 2.36 1.46 3.58 0.413 1.01 0.826 2.02 1.25 3.06 1.14 2.92 2.13 5.9 3.12 8.87h-51c-9.14-22.9-9.14-22.9-11.9-31.2-0.569-1.68-1.14-3.36-1.71-5.04-0.237-0.705-0.474-1.41-0.719-2.14-0.508-1.65-0.508-1.65-1.63-2.63-2.49-0.095-4.96-0.126-7.46-0.114-0.78-1.46e-4 -1.56-2.92e-4 -2.36-4.43e-4 -2.59 6.99e-4 -5.18 0.00849-7.78 0.0163-1.79 0.00186-3.58 0.00329-5.38 0.00429-4.73 0.00383-9.45 0.0137-14.2 0.0247-4.82 0.0102-9.64 0.0148-14.5 0.0198-9.46 0.0107-18.9 0.0278-28.4 0.0488-0.419 1.17-0.838 2.34-1.27 3.55-1.55 4.34-3.1 8.67-4.66 13-0.673 1.88-1.34 3.76-2.02 5.63-0.964 2.7-1.93 5.39-2.9 8.09-0.301 0.843-0.602 1.69-0.912 2.55-0.28 0.781-0.56 1.56-0.849 2.37-0.246 0.688-0.493 1.38-0.747 2.09-0.652 1.72-0.652 1.72-1.65 3.72h-51c3.38-10.1 3.38-10.1 5.14-14.5 0.627-1.57 0.627-1.57 1.27-3.17 0.462-1.15 0.924-2.29 1.4-3.47 0.507-1.26 1.01-2.53 1.52-3.79 5.99-14.9 12.1-29.7 18.1-44.6 6.81-16.7 13.6-33.4 20.2-50.1 7.29-18.3 14.6-36.6 22-54.9 0.851-2.11 1.7-4.22 2.55-6.32 1.2-2.98 2.41-5.96 3.61-8.94 0.357-0.886 0.714-1.77 1.08-2.69 0.342-0.845 0.684-1.69 1.04-2.56 0.292-0.724 0.585-1.45 0.886-2.2 1.65-3.91 3.4-7.78 5.12-11.7zm21 65c-3.83 9.37-7.37 18.8-10.9 28.3-1.22 3.23-2.43 6.45-3.65 9.68-0.292 0.773-0.584 1.55-0.884 2.34-2.48 6.57-4.99 13.1-7.53 19.7 0.99 1.21 0.99 1.21 2.9 1.12 0.833-0.00222 1.67-0.00444 2.52-0.00673 0.941-7.55e-5 1.88-1.51e-4 2.85-2.29e-4 1.02-0.00516 2.05-0.0103 3.1-0.0156 1.56-0.00212 1.56-0.00212 3.16-0.00429 3.34-0.00562 6.68-0.0182 10-0.0309 2.26-0.00501 4.52-0.00958 6.78-0.0137 5.55-0.0111 11.1-0.0278 16.7-0.0488-1.96-6.81-4.18-13.5-6.65-20.1-0.341-0.921-0.683-1.84-1.03-2.79-0.717-1.93-1.44-3.86-2.16-5.79-1.09-2.94-2.18-5.87-3.26-8.81-0.702-1.89-1.4-3.78-2.11-5.66-0.32-0.868-0.64-1.74-0.969-2.63-1.97-5.26-4.22-10.2-6.82-15.2h-2z" fill="#070508"/>
<path transform="translate(418,651)" d="m0 0c19.6-0.0206 39.2-0.0412 59.4-0.0625 6.2-0.0091 12.4-0.0182 18.8-0.0276 7.55-0.00452 7.55-0.00452 11.1-0.00536 2.48-0.00154 4.95-0.00507 7.43-0.0101 3.74-0.00727 7.48-0.00833 11.2-0.00795 1.11-0.0036 2.22-0.0072 3.37-0.0109 1 0.00138 2 0.00275 3.03 0.00417 0.877-9.22e-4 1.75-0.00184 2.66-0.00279 1.98 0.123 1.98 0.123 2.98 1.12 0.101 2.87 0.14 5.72 0.133 8.59 9.57e-4 0.862 0.00191 1.72 0.0029 2.61 6.82e-4 1.83-0.00117 3.65-0.00534 5.48-0.00535 2.8-5.51e-5 5.61 0.00635 8.41-6.61e-4 1.77-0.00194 3.54-0.00391 5.31 0.00202 0.845 0.00405 1.69 0.00613 2.56-0.024 5.92-0.024 5.92-1.14 7.03-2.24 0.0944-4.48 0.117-6.72 0.114-0.702 1.46e-4 -1.4 2.92e-4 -2.13 4.43e-4 -2.33-6.99e-4 -4.66-0.00849-7-0.0163-1.61-0.00186-3.23-0.00329-4.84-0.00429-4.25-0.00383-8.51-0.0137-12.8-0.0247-5.1-0.012-10.2-0.0166-15.3-0.0225-7.75-0.00971-15.5-0.0289-23.3-0.0462 0.33 13.9 0.66 27.7 1 42 34.2 0.495 34.2 0.495 69 1 0.0206 6.58 0.0412 13.2 0.0625 19.9 0.0091 2.08 0.0182 4.16 0.0276 6.3 0.00292 1.64 0.00547 3.28 0.00757 4.91 0.00512 0.859 0.0102 1.72 0.0155 2.6 3.1e-4 2.08-0.0507 4.16-0.113 6.25-1 1-1 1-3.74 1.12-1.22-0.00222-2.45-0.00444-3.71-0.00673-1.01 2.19e-4 -1.01 2.19e-4 -2.04 4.43e-4 -2.23-6.99e-4 -4.47-0.00849-6.7-0.0163-1.55-0.00186-3.09-0.00329-4.64-0.00429-4.08-0.00383-8.15-0.0137-12.2-0.0247-4.89-0.012-9.77-0.0166-14.7-0.0225-7.43-0.00971-14.9-0.0289-22.3-0.0462v43c5.19-0.0116 10.4-0.0232 15.7-0.0352 3.28-0.00511 6.55-0.00992 9.83-0.0137 5.21-0.00599 10.4-0.0131 15.6-0.0266 4.2-0.0108 8.39-0.0168 12.6-0.0194 1.6-0.00185 3.21-0.00547 4.81-0.0109 2.24-0.00721 4.48-0.00826 6.72-0.0078 1.28-0.00222 2.55-0.00444 3.87-0.00673 2.85 0.12 2.85 0.12 3.85 1.12 0.101 2.87 0.14 5.72 0.133 8.59 9.57e-4 0.862 0.00191 1.72 0.0029 2.61 6.82e-4 1.83-0.00117 3.65-0.00534 5.48-0.00535 2.8-5.51e-5 5.61 0.00635 8.41-6.61e-4 1.77-0.00194 3.54-0.00391 5.31 0.00202 0.845 0.00405 1.69 0.00613 2.56-0.024 5.92-0.024 5.92-1.14 7.03-1.54 0.0958-3.09 0.122-4.64 0.12-1.5 0.00207-1.5 0.00207-3.03 0.00417-1.67-0.0054-1.67-0.0054-3.37-0.0109-1.18 1.21e-4 -2.36 2.41e-4 -3.57 3.65e-4 -3.84-7.5e-4 -7.68-0.00838-11.5-0.0162-2.36-0.00147-4.72-0.00249-7.09-0.00305-8.78-0.00525-17.6-0.0192-26.3-0.0321-29.4-0.0309-29.4-0.0309-59.4-0.0625v-209z" fill="#070508"/>
<path transform="translate(638 644)" d="m0 0c8.05 8.03 8.9 25.1 11.1 35.9 0.583 2.86 1.17 5.71 1.77 8.57 0.777 3.74 1.55 7.49 2.32 11.2 1.32 6.38 2.63 12.8 3.98 19.1 0.187 0.913 0.374 1.83 0.566 2.77 0.857 4.53 0.857 4.53 3.5 8.17 3.07-6.3 4.41-12.7 5.81-19.6 0.256-1.21 0.511-2.43 0.775-3.68 1.38-6.61 2.71-13.2 3.99-19.8 0.13-0.664 0.26-1.33 0.394-2.01 0.625-3.2 1.24-6.39 1.84-9.6 4.28-22.1 4.28-22.1 10.2-27.3 4.79-2.39 8.93-2.26 14-1 4.56 1.97 6.82 4.56 9 9 1.06 8.01-0.837 16.2-2.22 24.1-0.413 2.35-0.813 4.71-1.21 7.06-1.24 7.32-2.52 14.6-3.87 21.9-4.73 25.5-8.27 49.8 0.306 74.9 3.9 15.2 1.32 30.1-6 44-2.11 3.23-4.43 6.13-7 9-0.557 0.638-1.11 1.28-1.69 1.93-10 10.8-24.2 14.4-38.5 15-15.5 0.347-30.8-2.66-42.9-12.8-4-3.95-7.08-8.26-9.88-13.1-0.429-0.713-0.859-1.43-1.3-2.16-7.39-13.3-9.65-28.8-10.1-43.8-0.233-7.11-0.76-13.9-2.31-20.8-1.36-6.49-1.76-12 0.688-18.2 3.1-4.02 6.95-7.08 11.9-8.57 5.45-1.65 7.58-3.89 10.8-8.56 2.33-3.19 4.98-4.46 8.68-5.56 3.58-0.416 7.08-0.331 10.7-0.312-0.245-1.2-0.489-2.39-0.741-3.63-2.36-11.6-4.58-23.3-6.61-35-0.314-1.8-0.633-3.6-0.957-5.39-0.479-2.66-0.942-5.32-1.4-7.98-0.146-0.793-0.291-1.59-0.442-2.4-0.975-5.79-1.23-11.3 1.06-16.9 5.79-8.07 15.4-10.4 23.8-4.61zm-17.8 5.81c-3.48 5.22-2 10.9-0.946 16.8 0.112 0.642 0.224 1.28 0.34 1.94 0.369 2.1 0.747 4.21 1.13 6.31 0.262 1.48 0.524 2.96 0.786 4.44 0.549 3.1 1.1 6.2 1.66 9.3 0.705 3.93 1.4 7.87 2.1 11.8 0.541 3.06 1.08 6.12 1.63 9.18 0.258 1.45 0.515 2.9 0.771 4.34 1.66 9.33 3.49 18.6 5.54 27.9 0.601 0.131 1.2 0.262 1.82 0.397 17.7 3.87 35.4 8.61 52.2 15.6 1.54-1.54 1.25-3.07 1.39-5.21 0.0989-1.35 0.0989-1.35 0.2-2.72 0.072-0.99 0.144-1.98 0.218-3 0.669-8.22 1.54-16.4 2.81-24.5 0.157-1.01 0.314-2.02 0.476-3.06 1.09-6.81 2.26-13.6 3.47-20.4 0.772-4.36 1.53-8.72 2.29-13.1 0.385-2.19 0.777-4.38 1.18-6.56 0.567-3.1 1.11-6.2 1.65-9.31 0.178-0.936 0.356-1.87 0.539-2.84 0.904-5.37 1.09-8.67-2.22-13.3-3.72-2.48-5.6-2.46-10-2-3.77 2.93-4.81 5.68-5.94 10.2-0.241 0.962-0.241 0.962-0.487 1.94-2.76 11.3-4.93 22.7-7.22 34.1-6.56 32.6-6.56 32.6-11.4 37.7-3.19 0.25-3.19 0.25-6 0-2.99-4.83-4.87-9.24-6.11-14.8-0.175-0.742-0.35-1.48-0.531-2.25-0.567-2.42-1.12-4.84-1.67-7.26-0.393-1.69-0.786-3.38-1.18-5.06-1.96-8.45-3.8-16.9-5.51-25.4-0.234-1.16-0.234-1.16-0.472-2.34-0.735-3.67-1.45-7.33-2.14-11-1.31-6.82-2.58-13-6.38-18.9-5.23-3.23-8.72-1.59-14 1zm-12.7 79.4c-2.53 3.09-2.36 6.78-2.35 10.6 0.423 3.43 1.2 6.72 2.06 10.1 0.342 1.37 0.342 1.37 0.692 2.76 3.23 12.5 6.83 26.3 16.6 35.4 3.92 1.21 6.93 0.498 10.6-1.19 2.96-2.46 2.96-2.46 5-5-1.07-2.72-1.95-3.96-4.31-5.75-4.73-3.96-7.74-9.42-9.69-15.2-0.23-2.82-0.23-2.82-0.188-5.69 0.00645-0.953 0.0129-1.91 0.0195-2.89 0.168-2.43 0.168-2.43 1.17-4.43 0.639-7.77-0.0691-14.8-3-22-1.13-1.35-1.13-1.35-4.12-1.25-4.82 0.311-8.74 1.5-12.5 4.6zm-17.7 12.3c-2.83 2.35-4.02 4.82-4.62 8.34-0.485 14.4 5.3 27.2 12.9 39 3.26 3.16 6.63 4.89 11.2 5.1 3-0.223 5.22-0.405 7.29-2.71 0.865-3.74-1.14-6.28-2.95-9.45-4.8-8.96-7.71-18.2-10.5-27.9-0.419-1.44-0.838-2.88-1.26-4.32-0.934-3.22-1.85-6.45-2.74-9.68-3.88-1.3-5.9-0.561-9.38 1.66zm41.6 7.97c-1.62 3.23-1.72 4.76-1.19 8.38 2.6 7.29 6.41 12.9 13 17 6.85 3.22 13.6 5.16 21 7 0.495 11.4 0.495 11.4 1 23-5.62-11.2-5.62-11.2-7-18-5.77 1.92-8.61 8.51-11.5 13.6-3.52 7.18-5.13 14.5-6.54 22.4h-1c-0.525-13.5 1.27-22.8 9-34 0.66-0.66 1.32-1.32 2-2-0.319-2.11-0.319-2.11-1-4-2.45 0.106-2.45 0.106-5 1-0.717 1.65-1.38 3.31-2 5-1.75 1.19-1.75 1.19-4 2-0.887 0.371-1.77 0.743-2.69 1.12-3 0.791-4.68 0.868-7.69 0.688-3.71-0.112-5.58 0.504-8.62 2.62-4.83 3.36-9.3 4.16-15.1 3.22-5.31-1.57-8.12-4.71-11.5-9.02-0.715-0.814-0.715-0.814-1.45-1.64h-2c0.788 18.6 6.11 36.1 20 49 11.7 9.68 26.8 12.5 41.6 11.8 13.9-1.75 26.2-7.94 35-18.9 6.42-9.3 9.92-19.5 9.84-30.8-0.00423-1.35-0.00423-1.35-0.00854-2.73-0.238-10.1-1.8-24.3-8.49-32.4-5.52-3.67-12-5.5-18.3-7.44-1.43-0.447-1.43-0.447-2.88-0.903-6.42-1.99-12.9-3.86-19.4-5.6-0.778-0.211-1.56-0.423-2.36-0.64-6.81-2.14-6.81-2.14-12.9 0.203z" fill="#070508"/>
</svg>
